<svg xmlns="http://www.w3.org/2000/svg" viewBox="0 0 300 70">
    <defs>
        <filter id="a" width="112.6%" height="168%" x="-6.3%" y="-26%" filterUnits="objectBoundingBox">
            <feOffset dy="4" dx="2" in="SourceAlpha" result="shadowOffsetOuter1"/>
            <feGaussianBlur in="shadowOffsetOuter1" result="shadowBlurOuter1" stdDeviation="3"/>
            <feColorMatrix in="shadowBlurOuter1" result="shadowMatrixOuter1" values="0 0 0 0 0.180392157 0 0 0 0 0.254901961 0 0 0 0 0.8 0 0 0 1 0"/>
            <feMerge>
                <feMergeNode in="shadowMatrixOuter1"/>
                <feMergeNode in="SourceGraphic"/>
            </feMerge>
        </filter>
    </defs>
    <g fill="none" fill-rule="evenodd" filter="url(#a)" transform="translate(10 6)">
        <path fill="#4786FF" d="M50 0h215a5 5 0 0 1 5 5v40a5 5 0 0 1-5 5H50V0z"/>
        <text fill="#FFF" font-family="DINPro-Medium, DINPro, Helvetica" font-size="15" font-weight="400" transform="translate(50)" letter-spacing="1">
            <tspan x="25" y="32">LOGIN WITH GOOGLE</tspan>
        </text>
        <g>
            <path fill="#3F74E7" d="M5 0h45v50H5a5 5 0 0 1-5-5V5a5 5 0 0 1 5-5z"/>
            <path fill="#FFF" fill-rule="nonzero" d="M25.14 23.02v3.96s3.897-.005 5.483-.005c-.86 2.567-2.195 3.966-5.482 3.966-3.327 0-5.924-2.66-5.924-5.941 0-3.28 2.597-5.94 5.924-5.94 1.759 0 2.895.61 3.937 1.459.834-.823.764-.94 2.886-2.916A10.183 10.183 0 0 0 25.141 15C19.54 15 15 19.477 15 25s4.54 10 10.14 10c8.372 0 10.418-7.188 9.74-11.98h-9.74z"/>
        </g>
    </g>
</svg>
